<mxfile host="app.diagrams.net" agent="Mozilla/5.0 (Windows NT 10.0; Win64; x64) AppleWebKit/537.36 (KHTML, like Gecko) Chrome/129.0.0.0 Safari/537.36" version="24.7.17">
  <diagram name="Page-1" id="AXkXtacJOq9qds6aqqWd">
    <mxGraphModel dx="1195" dy="682" grid="1" gridSize="10" guides="1" tooltips="1" connect="1" arrows="1" fold="1" page="1" pageScale="1" pageWidth="1100" pageHeight="850" math="0" shadow="0">
      <root>
        <mxCell id="0" />
        <mxCell id="1" parent="0" />
        <mxCell id="FeEjMwfdX87e0WbJr9Z6-3" value="" style="edgeStyle=orthogonalEdgeStyle;rounded=0;orthogonalLoop=1;jettySize=auto;html=1;" edge="1" parent="1" source="FeEjMwfdX87e0WbJr9Z6-1" target="FeEjMwfdX87e0WbJr9Z6-2">
          <mxGeometry relative="1" as="geometry" />
        </mxCell>
        <mxCell id="FeEjMwfdX87e0WbJr9Z6-1" value="start" style="rounded=1;whiteSpace=wrap;html=1;" vertex="1" parent="1">
          <mxGeometry x="150" y="40" width="140" height="60" as="geometry" />
        </mxCell>
        <mxCell id="FeEjMwfdX87e0WbJr9Z6-5" value="" style="edgeStyle=orthogonalEdgeStyle;rounded=0;orthogonalLoop=1;jettySize=auto;html=1;" edge="1" parent="1" source="FeEjMwfdX87e0WbJr9Z6-2" target="FeEjMwfdX87e0WbJr9Z6-4">
          <mxGeometry relative="1" as="geometry" />
        </mxCell>
        <mxCell id="FeEjMwfdX87e0WbJr9Z6-2" value="int num;&lt;div&gt;int digit;&lt;/div&gt;&lt;div&gt;int sumDigit = 0;&lt;/div&gt;" style="shape=parallelogram;perimeter=parallelogramPerimeter;whiteSpace=wrap;html=1;fixedSize=1;" vertex="1" parent="1">
          <mxGeometry x="150" y="150" width="140" height="60" as="geometry" />
        </mxCell>
        <mxCell id="FeEjMwfdX87e0WbJr9Z6-7" value="" style="edgeStyle=orthogonalEdgeStyle;rounded=0;orthogonalLoop=1;jettySize=auto;html=1;" edge="1" parent="1" source="FeEjMwfdX87e0WbJr9Z6-4" target="FeEjMwfdX87e0WbJr9Z6-6">
          <mxGeometry relative="1" as="geometry" />
        </mxCell>
        <mxCell id="FeEjMwfdX87e0WbJr9Z6-4" value="&amp;nbsp;digit = num % 10;&lt;div&gt;num = (num - digit) / 10&lt;/div&gt;&lt;div&gt;sumDigit += digit&amp;nbsp;&lt;/div&gt;" style="whiteSpace=wrap;html=1;" vertex="1" parent="1">
          <mxGeometry x="140" y="290" width="160" height="60" as="geometry" />
        </mxCell>
        <mxCell id="FeEjMwfdX87e0WbJr9Z6-8" value="true" style="edgeStyle=orthogonalEdgeStyle;rounded=0;orthogonalLoop=1;jettySize=auto;html=1;exitX=1;exitY=0.5;exitDx=0;exitDy=0;entryX=0.5;entryY=0;entryDx=0;entryDy=0;" edge="1" parent="1" source="FeEjMwfdX87e0WbJr9Z6-6" target="FeEjMwfdX87e0WbJr9Z6-4">
          <mxGeometry x="-0.8182" relative="1" as="geometry">
            <Array as="points">
              <mxPoint x="370" y="460" />
              <mxPoint x="370" y="270" />
              <mxPoint x="220" y="270" />
            </Array>
            <mxPoint as="offset" />
          </mxGeometry>
        </mxCell>
        <mxCell id="FeEjMwfdX87e0WbJr9Z6-10" value="false" style="edgeStyle=orthogonalEdgeStyle;rounded=0;orthogonalLoop=1;jettySize=auto;html=1;" edge="1" parent="1" source="FeEjMwfdX87e0WbJr9Z6-6" target="FeEjMwfdX87e0WbJr9Z6-9">
          <mxGeometry relative="1" as="geometry" />
        </mxCell>
        <mxCell id="FeEjMwfdX87e0WbJr9Z6-6" value="num &amp;gt; 0" style="rhombus;whiteSpace=wrap;html=1;" vertex="1" parent="1">
          <mxGeometry x="150" y="420" width="140" height="80" as="geometry" />
        </mxCell>
        <mxCell id="FeEjMwfdX87e0WbJr9Z6-14" value="" style="edgeStyle=orthogonalEdgeStyle;rounded=0;orthogonalLoop=1;jettySize=auto;html=1;" edge="1" parent="1" source="FeEjMwfdX87e0WbJr9Z6-9" target="FeEjMwfdX87e0WbJr9Z6-13">
          <mxGeometry relative="1" as="geometry" />
        </mxCell>
        <mxCell id="FeEjMwfdX87e0WbJr9Z6-9" value="sumDigit" style="shape=document;whiteSpace=wrap;html=1;boundedLbl=1;" vertex="1" parent="1">
          <mxGeometry x="160" y="550" width="120" height="80" as="geometry" />
        </mxCell>
        <mxCell id="FeEjMwfdX87e0WbJr9Z6-13" value="end" style="rounded=1;whiteSpace=wrap;html=1;" vertex="1" parent="1">
          <mxGeometry x="160" y="690" width="120" height="60" as="geometry" />
        </mxCell>
        <mxCell id="FeEjMwfdX87e0WbJr9Z6-15" value="&lt;font style=&quot;font-size: 10px;&quot;&gt;num = 365&lt;/font&gt;&lt;div&gt;&lt;span style=&quot;font-size: 10px;&quot;&gt;&lt;br&gt;&lt;/span&gt;&lt;div&gt;&lt;font style=&quot;font-size: 10px;&quot;&gt;digit = 365 % 10 = 5&lt;/font&gt;&lt;/div&gt;&lt;div&gt;&amp;nbsp;&lt;span style=&quot;font-size: 10px; background-color: initial;&quot;&gt;num = (365 - 5) / 10 = 36&amp;nbsp;&amp;nbsp;&lt;/span&gt;&lt;/div&gt;&lt;div&gt;&lt;span style=&quot;font-size: 10px; background-color: initial;&quot;&gt;sumDigit = 0 + 5 = 5&lt;/span&gt;&lt;/div&gt;&lt;/div&gt;" style="ellipse;whiteSpace=wrap;html=1;aspect=fixed;" vertex="1" parent="1">
          <mxGeometry x="800" y="40" width="140" height="140" as="geometry" />
        </mxCell>
        <mxCell id="FeEjMwfdX87e0WbJr9Z6-16" value="&lt;font style=&quot;font-size: 10px;&quot;&gt;num = 36&lt;/font&gt;&lt;div&gt;&lt;span style=&quot;font-size: 10px;&quot;&gt;&lt;br&gt;&lt;/span&gt;&lt;div&gt;&lt;font style=&quot;font-size: 10px;&quot;&gt;digit = 36 % 10 = 6&lt;/font&gt;&lt;/div&gt;&lt;div&gt;&amp;nbsp;&lt;span style=&quot;font-size: 10px; background-color: initial;&quot;&gt;num = (36 - 6) / 10 = 3&amp;nbsp;&amp;nbsp;&lt;/span&gt;&lt;/div&gt;&lt;div&gt;&lt;span style=&quot;font-size: 10px; background-color: initial;&quot;&gt;sumDigit = 5 + 6 = 11&lt;/span&gt;&lt;/div&gt;&lt;/div&gt;" style="ellipse;whiteSpace=wrap;html=1;aspect=fixed;" vertex="1" parent="1">
          <mxGeometry x="800" y="200" width="140" height="140" as="geometry" />
        </mxCell>
        <mxCell id="FeEjMwfdX87e0WbJr9Z6-17" value="&lt;font style=&quot;font-size: 10px;&quot;&gt;num = 3&lt;/font&gt;&lt;div&gt;&lt;span style=&quot;font-size: 10px;&quot;&gt;&lt;br&gt;&lt;/span&gt;&lt;div&gt;&lt;font style=&quot;font-size: 10px;&quot;&gt;digit = 3 % 10 = 3&lt;/font&gt;&lt;/div&gt;&lt;div&gt;&amp;nbsp;&lt;span style=&quot;font-size: 10px; background-color: initial;&quot;&gt;num = (3 - 3) / 10 = 0&amp;nbsp;&amp;nbsp;&lt;/span&gt;&lt;/div&gt;&lt;div&gt;&lt;span style=&quot;font-size: 10px; background-color: initial;&quot;&gt;sumDigit = 11 + 3 = 14&lt;/span&gt;&lt;/div&gt;&lt;/div&gt;" style="ellipse;whiteSpace=wrap;html=1;aspect=fixed;" vertex="1" parent="1">
          <mxGeometry x="800" y="360" width="140" height="140" as="geometry" />
        </mxCell>
      </root>
    </mxGraphModel>
  </diagram>
</mxfile>
